  0
SECTION
  2
HEADER
  9
$ACADVER
  1
AC1014
  9
$HANDSEED
  5
FFFF
  9
$MEASUREMENT
 70
     1
  0
ENDSEC
  0
SECTION
  2
TABLES
  0
TABLE
  2
VPORT
  5
8
330
0
100
AcDbSymbolTable
 70
     4
  0
VPORT
  5
2E
330
8
100
AcDbSymbolTableRecord
100
AcDbViewportTableRecord
  2
*ACTIVE
 70
     0
 10
0.0
 20
0.0
 11
1.0
 21
1.0
 12
210.0
 22
148.5
 13
0.0
 23
0.0
 14
10.0
 24
10.0
 15
10.0
 25
10.0
 16
0.0
 26
0.0
 36
1.0
 17
0.0
 27
0.0
 37
0.0
 40
341.0
 41
1.24
 42
50.0
 43
0.0
 44
0.0
 50
0.0
 51
0.0
 71
     0
 72
   100
 73
     1
 74
     3
 75
     0
 76
     0
 77
     0
 78
     0
  0
ENDTAB
  0
TABLE
  2
LTYPE
  5
5
330
0
100
AcDbSymbolTable
 70
     1
  0
LTYPE
  5
14
330
5
100
AcDbSymbolTableRecord
100
AcDbLinetypeTableRecord
  2
BYBLOCK
 70
     0
  3

 72
    65
 73
     0
 40
0.0
  0
LTYPE
  5
15
330
5
100
AcDbSymbolTableRecord
100
AcDbLinetypeTableRecord
  2
BYLAYER
 70
     0
  3

 72
    65
 73
     0
 40
0.0
  0
LTYPE
  5
16
330
5
100
AcDbSymbolTableRecord
100
AcDbLinetypeTableRecord
  2
CONTINUOUS
 70
     0
  3
Solid line
 72
    65
 73
     0
 40
0.0
  0
ENDTAB
  0
TABLE
  2
LAYER
  5
2
100
AcDbSymbolTable
 70
2
  0
LAYER
  5
50
100
AcDbSymbolTableRecord
100
AcDbLayerTableRecord
  2
0
 70
0
  6
CONTINUOUS
  0
LAYER
  5
51
100
AcDbSymbolTableRecord
100
AcDbLayerTableRecord
  2
Carte_Micro_V1_etch_mask_top
 70
0
  6
CONTINUOUS
  0
ENDTAB
  0
TABLE
  2
STYLE
  5
3
330
0
100
AcDbSymbolTable
 70
     1
  0
STYLE
  5
11
330
3
100
AcDbSymbolTableRecord
100
AcDbTextStyleTableRecord
  2
STANDARD
 70
     0
 40
0.0
 41
1.0
 50
0.0
 71
     0
 42
2.5
  3
txt
  4

  0
ENDTAB
  0
TABLE
  2
VIEW
  5
6
330
0
100
AcDbSymbolTable
 70
     0
  0
ENDTAB
  0
TABLE
  2
UCS
  5
7
330
0
100
AcDbSymbolTable
 70
     0
  0
ENDTAB
  0
TABLE
  2
APPID
  5
9
330
0
100
AcDbSymbolTable
 70
     2
  0
APPID
  5
12
330
9
100
AcDbSymbolTableRecord
100
AcDbRegAppTableRecord
  2
ACAD
 70
     0
  0
ENDTAB
  0
TABLE
  2
DIMSTYLE
  5
A
330
0
100
AcDbSymbolTable
 70
     1
  0
DIMSTYLE
105
27
330
A
100
AcDbSymbolTableRecord
100
AcDbDimStyleTableRecord
  2
ISO-25
 70
     0
  3

  4

  5

  6

  7

 40
1.0
 41
2.5
 42
0.625
 43
3.75
 44
1.25
 45
0.0
 46
0.0
 47
0.0
 48
0.0
140
2.5
141
2.5
142
0.0
143
0.03937007874016
144
1.0
145
0.0
146
1.0
147
0.625
 71
     0
 72
     0
 73
     0
 74
     0
 75
     0
 76
     0
 77
     1
 78
     8
170
     0
171
     3
172
     1
173
     0
174
     0
175
     0
176
     0
177
     0
178
     0
270
     2
271
     2
272
     2
273
     2
274
     3
340
11
275
     0
280
     0
281
     0
282
     0
283
     0
284
     8
285
     0
286
     0
287
     3
288
     0
  0
ENDTAB
  0
TABLE
  2
BLOCK_RECORD
  5
1
330
0
100
AcDbSymbolTable
 70
     1
  0
BLOCK_RECORD
  5
1F
330
1
100
AcDbSymbolTableRecord
100
AcDbBlockTableRecord
  2
*MODEL_SPACE
  0
BLOCK_RECORD
  5
1B
330
1
100
AcDbSymbolTableRecord
100
AcDbBlockTableRecord
  2
*PAPER_SPACE
  0
ENDTAB
  0
ENDSEC
  0
SECTION
  2
BLOCKS
  0
BLOCK
  5
20
330
1F
100
AcDbEntity
  8
0
100
AcDbBlockBegin
  2
*MODEL_SPACE
 70
     0
 10
0.0
 20
0.0
 30
0.0
  3
*MODEL_SPACE
  1

  0
ENDBLK
  5
21
330
1F
100
AcDbEntity
  8
0
100
AcDbBlockEnd
  0
BLOCK
  5
1C
330
1B
100
AcDbEntity
 67
     1
  8
0
100
AcDbBlockBegin
  2
*PAPER_SPACE
  1

  0
ENDBLK
  5
1D
330
1B
100
AcDbEntity
 67
     1
  8
0
100
AcDbBlockEnd
  0
ENDSEC
  0
SECTION
  2
ENTITIES
  0
LINE
  5
100
100
AcDbEntity
  8
Carte_Micro_V1_etch_mask_top
 62
7
100
AcDbLine
 10
0.017639
 20
149.814554
 30
0.0
 11
99.814451
 21
149.814554
 31
0.0
  0
LINE
  5
101
100
AcDbEntity
  8
Carte_Micro_V1_etch_mask_top
 62
7
100
AcDbLine
 10
99.814451
 20
149.814554
 30
0.0
 11
99.814451
 21
0.017630
 31
0.0
  0
LINE
  5
102
100
AcDbEntity
  8
Carte_Micro_V1_etch_mask_top
 62
7
100
AcDbLine
 10
99.814451
 20
0.017630
 30
0.0
 11
0.017639
 21
0.017630
 31
0.0
  0
LINE
  5
103
100
AcDbEntity
  8
Carte_Micro_V1_etch_mask_top
 62
7
100
AcDbLine
 10
0.017639
 20
0.017630
 30
0.0
 11
0.017639
 21
149.814554
 31
0.0
  0
LINE
  5
104
100
AcDbEntity
  8
Carte_Micro_V1_etch_mask_top
 62
7
100
AcDbLine
 10
0.017639
 20
149.814554
 30
0.0
 11
0.017639
 21
149.814554
 31
0.0
  0
SPLINE
  5
105
100
AcDbEntity
  8
Carte_Micro_V1_etch_mask_top
 62
7
100
AcDbSpline
 70
8
 71
3
 72
8
 73
4
 74
0
 40
0
 40
0
 40
0
 40
0
 40
1
 40
1
 40
1
 40
1
 10
24.688373
 20
146.680213
 30
0.0
 10
24.688373
 20
145.520414
 30
0.0
 10
23.748171
 20
144.580212
 30
0.0
 10
22.588373
 20
144.580212
 30
0.0
  0
SPLINE
  5
106
100
AcDbEntity
  8
Carte_Micro_V1_etch_mask_top
 62
7
100
AcDbSpline
 70
8
 71
3
 72
8
 73
4
 74
0
 40
0
 40
0
 40
0
 40
0
 40
1
 40
1
 40
1
 40
1
 10
22.588373
 20
144.580212
 30
0.0
 10
21.428575
 20
144.580212
 30
0.0
 10
20.488373
 20
145.520414
 30
0.0
 10
20.488373
 20
146.680213
 30
0.0
  0
SPLINE
  5
107
100
AcDbEntity
  8
Carte_Micro_V1_etch_mask_top
 62
7
100
AcDbSpline
 70
8
 71
3
 72
8
 73
4
 74
0
 40
0
 40
0
 40
0
 40
0
 40
1
 40
1
 40
1
 40
1
 10
20.488373
 20
146.680213
 30
0.0
 10
20.488373
 20
147.840012
 30
0.0
 10
21.428575
 20
148.780214
 30
0.0
 10
22.588373
 20
148.780214
 30
0.0
  0
SPLINE
  5
108
100
AcDbEntity
  8
Carte_Micro_V1_etch_mask_top
 62
7
100
AcDbSpline
 70
8
 71
3
 72
8
 73
4
 74
0
 40
0
 40
0
 40
0
 40
0
 40
1
 40
1
 40
1
 40
1
 10
22.588373
 20
148.780214
 30
0.0
 10
23.748171
 20
148.780214
 30
0.0
 10
24.688373
 20
147.840012
 30
0.0
 10
24.688373
 20
146.680213
 30
0.0
  0
LINE
  5
109
100
AcDbEntity
  8
Carte_Micro_V1_etch_mask_top
 62
7
100
AcDbLine
 10
24.688373
 20
146.680213
 30
0.0
 11
24.688373
 21
146.680213
 31
0.0
  0
SPLINE
  5
10a
100
AcDbEntity
  8
Carte_Micro_V1_etch_mask_top
 62
7
100
AcDbSpline
 70
8
 71
3
 72
8
 73
4
 74
0
 40
0
 40
0
 40
0
 40
0
 40
1
 40
1
 40
1
 40
1
 10
24.688373
 20
146.680215
 30
0.0
 10
24.688373
 20
145.520417
 30
0.0
 10
23.748171
 20
144.580215
 30
0.0
 10
22.588373
 20
144.580215
 30
0.0
  0
SPLINE
  5
10b
100
AcDbEntity
  8
Carte_Micro_V1_etch_mask_top
 62
7
100
AcDbSpline
 70
8
 71
3
 72
8
 73
4
 74
0
 40
0
 40
0
 40
0
 40
0
 40
1
 40
1
 40
1
 40
1
 10
22.588373
 20
144.580215
 30
0.0
 10
21.428575
 20
144.580215
 30
0.0
 10
20.488373
 20
145.520417
 30
0.0
 10
20.488373
 20
146.680215
 30
0.0
  0
SPLINE
  5
10c
100
AcDbEntity
  8
Carte_Micro_V1_etch_mask_top
 62
7
100
AcDbSpline
 70
8
 71
3
 72
8
 73
4
 74
0
 40
0
 40
0
 40
0
 40
0
 40
1
 40
1
 40
1
 40
1
 10
20.488373
 20
146.680215
 30
0.0
 10
20.488373
 20
147.840013
 30
0.0
 10
21.428575
 20
148.780215
 30
0.0
 10
22.588373
 20
148.780215
 30
0.0
  0
SPLINE
  5
10d
100
AcDbEntity
  8
Carte_Micro_V1_etch_mask_top
 62
7
100
AcDbSpline
 70
8
 71
3
 72
8
 73
4
 74
0
 40
0
 40
0
 40
0
 40
0
 40
1
 40
1
 40
1
 40
1
 10
22.588373
 20
148.780215
 30
0.0
 10
23.748171
 20
148.780215
 30
0.0
 10
24.688373
 20
147.840013
 30
0.0
 10
24.688373
 20
146.680215
 30
0.0
  0
LINE
  5
10e
100
AcDbEntity
  8
Carte_Micro_V1_etch_mask_top
 62
7
100
AcDbLine
 10
24.688373
 20
146.680215
 30
0.0
 11
24.688373
 21
146.680215
 31
0.0
  0
SPLINE
  5
10f
100
AcDbEntity
  8
Carte_Micro_V1_etch_mask_top
 62
7
100
AcDbSpline
 70
8
 71
3
 72
8
 73
4
 74
0
 40
0
 40
0
 40
0
 40
0
 40
1
 40
1
 40
1
 40
1
 10
81.203261
 20
27.935143
 30
0.0
 10
81.203261
 20
26.775345
 30
0.0
 10
80.263059
 20
25.835143
 30
0.0
 10
79.103261
 20
25.835143
 30
0.0
  0
SPLINE
  5
110
100
AcDbEntity
  8
Carte_Micro_V1_etch_mask_top
 62
7
100
AcDbSpline
 70
8
 71
3
 72
8
 73
4
 74
0
 40
0
 40
0
 40
0
 40
0
 40
1
 40
1
 40
1
 40
1
 10
79.103261
 20
25.835143
 30
0.0
 10
77.943463
 20
25.835143
 30
0.0
 10
77.003261
 20
26.775345
 30
0.0
 10
77.003261
 20
27.935143
 30
0.0
  0
SPLINE
  5
111
100
AcDbEntity
  8
Carte_Micro_V1_etch_mask_top
 62
7
100
AcDbSpline
 70
8
 71
3
 72
8
 73
4
 74
0
 40
0
 40
0
 40
0
 40
0
 40
1
 40
1
 40
1
 40
1
 10
77.003261
 20
27.935143
 30
0.0
 10
77.003261
 20
29.094943
 30
0.0
 10
77.943463
 20
30.035145
 30
0.0
 10
79.103261
 20
30.035145
 30
0.0
  0
SPLINE
  5
112
100
AcDbEntity
  8
Carte_Micro_V1_etch_mask_top
 62
7
100
AcDbSpline
 70
8
 71
3
 72
8
 73
4
 74
0
 40
0
 40
0
 40
0
 40
0
 40
1
 40
1
 40
1
 40
1
 10
79.103261
 20
30.035145
 30
0.0
 10
80.263059
 20
30.035145
 30
0.0
 10
81.203261
 20
29.094943
 30
0.0
 10
81.203261
 20
27.935143
 30
0.0
  0
LINE
  5
113
100
AcDbEntity
  8
Carte_Micro_V1_etch_mask_top
 62
7
100
AcDbLine
 10
81.203261
 20
27.935143
 30
0.0
 11
81.203261
 21
27.935143
 31
0.0
  0
SPLINE
  5
114
100
AcDbEntity
  8
Carte_Micro_V1_etch_mask_top
 62
7
100
AcDbSpline
 70
8
 71
3
 72
8
 73
4
 74
0
 40
0
 40
0
 40
0
 40
0
 40
1
 40
1
 40
1
 40
1
 10
81.203261
 20
27.935145
 30
0.0
 10
81.203261
 20
26.775347
 30
0.0
 10
80.263059
 20
25.835145
 30
0.0
 10
79.103261
 20
25.835145
 30
0.0
  0
SPLINE
  5
115
100
AcDbEntity
  8
Carte_Micro_V1_etch_mask_top
 62
7
100
AcDbSpline
 70
8
 71
3
 72
8
 73
4
 74
0
 40
0
 40
0
 40
0
 40
0
 40
1
 40
1
 40
1
 40
1
 10
79.103261
 20
25.835145
 30
0.0
 10
77.943463
 20
25.835145
 30
0.0
 10
77.003261
 20
26.775347
 30
0.0
 10
77.003261
 20
27.935145
 30
0.0
  0
SPLINE
  5
116
100
AcDbEntity
  8
Carte_Micro_V1_etch_mask_top
 62
7
100
AcDbSpline
 70
8
 71
3
 72
8
 73
4
 74
0
 40
0
 40
0
 40
0
 40
0
 40
1
 40
1
 40
1
 40
1
 10
77.003261
 20
27.935145
 30
0.0
 10
77.003261
 20
29.094943
 30
0.0
 10
77.943463
 20
30.035145
 30
0.0
 10
79.103261
 20
30.035145
 30
0.0
  0
SPLINE
  5
117
100
AcDbEntity
  8
Carte_Micro_V1_etch_mask_top
 62
7
100
AcDbSpline
 70
8
 71
3
 72
8
 73
4
 74
0
 40
0
 40
0
 40
0
 40
0
 40
1
 40
1
 40
1
 40
1
 10
79.103261
 20
30.035145
 30
0.0
 10
80.263059
 20
30.035145
 30
0.0
 10
81.203261
 20
29.094943
 30
0.0
 10
81.203261
 20
27.935145
 30
0.0
  0
LINE
  5
118
100
AcDbEntity
  8
Carte_Micro_V1_etch_mask_top
 62
7
100
AcDbLine
 10
81.203261
 20
27.935145
 30
0.0
 11
81.203261
 21
27.935145
 31
0.0
  0
SPLINE
  5
119
100
AcDbEntity
  8
Carte_Micro_V1_etch_mask_top
 62
7
100
AcDbSpline
 70
8
 71
3
 72
8
 73
4
 74
0
 40
0
 40
0
 40
0
 40
0
 40
1
 40
1
 40
1
 40
1
 10
24.688373
 20
17.140137
 30
0.0
 10
24.688373
 20
15.980339
 30
0.0
 10
23.748171
 20
15.040137
 30
0.0
 10
22.588373
 20
15.040137
 30
0.0
  0
SPLINE
  5
11a
100
AcDbEntity
  8
Carte_Micro_V1_etch_mask_top
 62
7
100
AcDbSpline
 70
8
 71
3
 72
8
 73
4
 74
0
 40
0
 40
0
 40
0
 40
0
 40
1
 40
1
 40
1
 40
1
 10
22.588373
 20
15.040137
 30
0.0
 10
21.428575
 20
15.040137
 30
0.0
 10
20.488373
 20
15.980339
 30
0.0
 10
20.488373
 20
17.140137
 30
0.0
  0
SPLINE
  5
11b
100
AcDbEntity
  8
Carte_Micro_V1_etch_mask_top
 62
7
100
AcDbSpline
 70
8
 71
3
 72
8
 73
4
 74
0
 40
0
 40
0
 40
0
 40
0
 40
1
 40
1
 40
1
 40
1
 10
20.488373
 20
17.140137
 30
0.0
 10
20.488373
 20
18.299937
 30
0.0
 10
21.428575
 20
19.240139
 30
0.0
 10
22.588373
 20
19.240139
 30
0.0
  0
SPLINE
  5
11c
100
AcDbEntity
  8
Carte_Micro_V1_etch_mask_top
 62
7
100
AcDbSpline
 70
8
 71
3
 72
8
 73
4
 74
0
 40
0
 40
0
 40
0
 40
0
 40
1
 40
1
 40
1
 40
1
 10
22.588373
 20
19.240139
 30
0.0
 10
23.748171
 20
19.240139
 30
0.0
 10
24.688373
 20
18.299937
 30
0.0
 10
24.688373
 20
17.140137
 30
0.0
  0
LINE
  5
11d
100
AcDbEntity
  8
Carte_Micro_V1_etch_mask_top
 62
7
100
AcDbLine
 10
24.688373
 20
17.140137
 30
0.0
 11
24.688373
 21
17.140137
 31
0.0
  0
SPLINE
  5
11e
100
AcDbEntity
  8
Carte_Micro_V1_etch_mask_top
 62
7
100
AcDbSpline
 70
8
 71
3
 72
8
 73
4
 74
0
 40
0
 40
0
 40
0
 40
0
 40
1
 40
1
 40
1
 40
1
 10
24.688373
 20
17.140139
 30
0.0
 10
24.688373
 20
15.980341
 30
0.0
 10
23.748171
 20
15.040139
 30
0.0
 10
22.588373
 20
15.040139
 30
0.0
  0
SPLINE
  5
11f
100
AcDbEntity
  8
Carte_Micro_V1_etch_mask_top
 62
7
100
AcDbSpline
 70
8
 71
3
 72
8
 73
4
 74
0
 40
0
 40
0
 40
0
 40
0
 40
1
 40
1
 40
1
 40
1
 10
22.588373
 20
15.040139
 30
0.0
 10
21.428575
 20
15.040139
 30
0.0
 10
20.488373
 20
15.980341
 30
0.0
 10
20.488373
 20
17.140139
 30
0.0
  0
SPLINE
  5
120
100
AcDbEntity
  8
Carte_Micro_V1_etch_mask_top
 62
7
100
AcDbSpline
 70
8
 71
3
 72
8
 73
4
 74
0
 40
0
 40
0
 40
0
 40
0
 40
1
 40
1
 40
1
 40
1
 10
20.488373
 20
17.140139
 30
0.0
 10
20.488373
 20
18.299937
 30
0.0
 10
21.428575
 20
19.240139
 30
0.0
 10
22.588373
 20
19.240139
 30
0.0
  0
SPLINE
  5
121
100
AcDbEntity
  8
Carte_Micro_V1_etch_mask_top
 62
7
100
AcDbSpline
 70
8
 71
3
 72
8
 73
4
 74
0
 40
0
 40
0
 40
0
 40
0
 40
1
 40
1
 40
1
 40
1
 10
22.588373
 20
19.240139
 30
0.0
 10
23.748171
 20
19.240139
 30
0.0
 10
24.688373
 20
18.299937
 30
0.0
 10
24.688373
 20
17.140139
 30
0.0
  0
LINE
  5
122
100
AcDbEntity
  8
Carte_Micro_V1_etch_mask_top
 62
7
100
AcDbLine
 10
24.688373
 20
17.140139
 30
0.0
 11
24.688373
 21
17.140139
 31
0.0
  0
SPLINE
  5
123
100
AcDbEntity
  8
Carte_Micro_V1_etch_mask_top
 62
7
100
AcDbSpline
 70
8
 71
3
 72
8
 73
4
 74
0
 40
0
 40
0
 40
0
 40
0
 40
1
 40
1
 40
1
 40
1
 10
48.818263
 20
127.630202
 30
0.0
 10
48.818263
 20
126.470404
 30
0.0
 10
47.878061
 20
125.530200
 30
0.0
 10
46.718263
 20
125.530200
 30
0.0
  0
SPLINE
  5
124
100
AcDbEntity
  8
Carte_Micro_V1_etch_mask_top
 62
7
100
AcDbSpline
 70
8
 71
3
 72
8
 73
4
 74
0
 40
0
 40
0
 40
0
 40
0
 40
1
 40
1
 40
1
 40
1
 10
46.718263
 20
125.530200
 30
0.0
 10
45.558465
 20
125.530200
 30
0.0
 10
44.618265
 20
126.470404
 30
0.0
 10
44.618265
 20
127.630202
 30
0.0
  0
SPLINE
  5
125
100
AcDbEntity
  8
Carte_Micro_V1_etch_mask_top
 62
7
100
AcDbSpline
 70
8
 71
3
 72
8
 73
4
 74
0
 40
0
 40
0
 40
0
 40
0
 40
1
 40
1
 40
1
 40
1
 10
44.618265
 20
127.630202
 30
0.0
 10
44.618265
 20
128.790001
 30
0.0
 10
45.558465
 20
129.730203
 30
0.0
 10
46.718263
 20
129.730203
 30
0.0
  0
SPLINE
  5
126
100
AcDbEntity
  8
Carte_Micro_V1_etch_mask_top
 62
7
100
AcDbSpline
 70
8
 71
3
 72
8
 73
4
 74
0
 40
0
 40
0
 40
0
 40
0
 40
1
 40
1
 40
1
 40
1
 10
46.718263
 20
129.730203
 30
0.0
 10
47.878061
 20
129.730203
 30
0.0
 10
48.818263
 20
128.790001
 30
0.0
 10
48.818263
 20
127.630202
 30
0.0
  0
LINE
  5
127
100
AcDbEntity
  8
Carte_Micro_V1_etch_mask_top
 62
7
100
AcDbLine
 10
48.818263
 20
127.630202
 30
0.0
 11
48.818263
 21
127.630202
 31
0.0
  0
SPLINE
  5
128
100
AcDbEntity
  8
Carte_Micro_V1_etch_mask_top
 62
7
100
AcDbSpline
 70
8
 71
3
 72
8
 73
4
 74
0
 40
0
 40
0
 40
0
 40
0
 40
1
 40
1
 40
1
 40
1
 10
48.818265
 20
127.630203
 30
0.0
 10
48.818265
 20
126.470406
 30
0.0
 10
47.878063
 20
125.530203
 30
0.0
 10
46.718265
 20
125.530203
 30
0.0
  0
SPLINE
  5
129
100
AcDbEntity
  8
Carte_Micro_V1_etch_mask_top
 62
7
100
AcDbSpline
 70
8
 71
3
 72
8
 73
4
 74
0
 40
0
 40
0
 40
0
 40
0
 40
1
 40
1
 40
1
 40
1
 10
46.718265
 20
125.530203
 30
0.0
 10
45.558467
 20
125.530203
 30
0.0
 10
44.618265
 20
126.470406
 30
0.0
 10
44.618265
 20
127.630203
 30
0.0
  0
SPLINE
  5
12a
100
AcDbEntity
  8
Carte_Micro_V1_etch_mask_top
 62
7
100
AcDbSpline
 70
8
 71
3
 72
8
 73
4
 74
0
 40
0
 40
0
 40
0
 40
0
 40
1
 40
1
 40
1
 40
1
 10
44.618265
 20
127.630203
 30
0.0
 10
44.618265
 20
128.790001
 30
0.0
 10
45.558467
 20
129.730204
 30
0.0
 10
46.718265
 20
129.730204
 30
0.0
  0
SPLINE
  5
12b
100
AcDbEntity
  8
Carte_Micro_V1_etch_mask_top
 62
7
100
AcDbSpline
 70
8
 71
3
 72
8
 73
4
 74
0
 40
0
 40
0
 40
0
 40
0
 40
1
 40
1
 40
1
 40
1
 10
46.718265
 20
129.730204
 30
0.0
 10
47.878063
 20
129.730204
 30
0.0
 10
48.818265
 20
128.790001
 30
0.0
 10
48.818265
 20
127.630203
 30
0.0
  0
LINE
  5
12c
100
AcDbEntity
  8
Carte_Micro_V1_etch_mask_top
 62
7
100
AcDbLine
 10
48.818265
 20
127.630203
 30
0.0
 11
48.818265
 21
127.630203
 31
0.0
  0
SPLINE
  5
12d
100
AcDbEntity
  8
Carte_Micro_V1_etch_mask_top
 62
7
100
AcDbSpline
 70
8
 71
3
 72
8
 73
4
 74
0
 40
0
 40
0
 40
0
 40
0
 40
1
 40
1
 40
1
 40
1
 10
81.203261
 20
107.945190
 30
0.0
 10
81.203261
 20
106.785392
 30
0.0
 10
80.263059
 20
105.845189
 30
0.0
 10
79.103261
 20
105.845189
 30
0.0
  0
SPLINE
  5
12e
100
AcDbEntity
  8
Carte_Micro_V1_etch_mask_top
 62
7
100
AcDbSpline
 70
8
 71
3
 72
8
 73
4
 74
0
 40
0
 40
0
 40
0
 40
0
 40
1
 40
1
 40
1
 40
1
 10
79.103261
 20
105.845189
 30
0.0
 10
77.943463
 20
105.845189
 30
0.0
 10
77.003261
 20
106.785392
 30
0.0
 10
77.003261
 20
107.945190
 30
0.0
  0
SPLINE
  5
12f
100
AcDbEntity
  8
Carte_Micro_V1_etch_mask_top
 62
7
100
AcDbSpline
 70
8
 71
3
 72
8
 73
4
 74
0
 40
0
 40
0
 40
0
 40
0
 40
1
 40
1
 40
1
 40
1
 10
77.003261
 20
107.945190
 30
0.0
 10
77.003261
 20
109.104990
 30
0.0
 10
77.943463
 20
110.045192
 30
0.0
 10
79.103261
 20
110.045192
 30
0.0
  0
SPLINE
  5
130
100
AcDbEntity
  8
Carte_Micro_V1_etch_mask_top
 62
7
100
AcDbSpline
 70
8
 71
3
 72
8
 73
4
 74
0
 40
0
 40
0
 40
0
 40
0
 40
1
 40
1
 40
1
 40
1
 10
79.103261
 20
110.045192
 30
0.0
 10
80.263059
 20
110.045192
 30
0.0
 10
81.203261
 20
109.104990
 30
0.0
 10
81.203261
 20
107.945190
 30
0.0
  0
LINE
  5
131
100
AcDbEntity
  8
Carte_Micro_V1_etch_mask_top
 62
7
100
AcDbLine
 10
81.203261
 20
107.945190
 30
0.0
 11
81.203261
 21
107.945190
 31
0.0
  0
SPLINE
  5
132
100
AcDbEntity
  8
Carte_Micro_V1_etch_mask_top
 62
7
100
AcDbSpline
 70
8
 71
3
 72
8
 73
4
 74
0
 40
0
 40
0
 40
0
 40
0
 40
1
 40
1
 40
1
 40
1
 10
81.203261
 20
107.945192
 30
0.0
 10
81.203261
 20
106.785394
 30
0.0
 10
80.263059
 20
105.845192
 30
0.0
 10
79.103261
 20
105.845192
 30
0.0
  0
SPLINE
  5
133
100
AcDbEntity
  8
Carte_Micro_V1_etch_mask_top
 62
7
100
AcDbSpline
 70
8
 71
3
 72
8
 73
4
 74
0
 40
0
 40
0
 40
0
 40
0
 40
1
 40
1
 40
1
 40
1
 10
79.103261
 20
105.845192
 30
0.0
 10
77.943463
 20
105.845192
 30
0.0
 10
77.003261
 20
106.785394
 30
0.0
 10
77.003261
 20
107.945192
 30
0.0
  0
SPLINE
  5
134
100
AcDbEntity
  8
Carte_Micro_V1_etch_mask_top
 62
7
100
AcDbSpline
 70
8
 71
3
 72
8
 73
4
 74
0
 40
0
 40
0
 40
0
 40
0
 40
1
 40
1
 40
1
 40
1
 10
77.003261
 20
107.945192
 30
0.0
 10
77.003261
 20
109.104990
 30
0.0
 10
77.943463
 20
110.045192
 30
0.0
 10
79.103261
 20
110.045192
 30
0.0
  0
SPLINE
  5
135
100
AcDbEntity
  8
Carte_Micro_V1_etch_mask_top
 62
7
100
AcDbSpline
 70
8
 71
3
 72
8
 73
4
 74
0
 40
0
 40
0
 40
0
 40
0
 40
1
 40
1
 40
1
 40
1
 10
79.103261
 20
110.045192
 30
0.0
 10
80.263059
 20
110.045192
 30
0.0
 10
81.203261
 20
109.104990
 30
0.0
 10
81.203261
 20
107.945192
 30
0.0
  0
LINE
  5
136
100
AcDbEntity
  8
Carte_Micro_V1_etch_mask_top
 62
7
100
AcDbLine
 10
81.203261
 20
107.945192
 30
0.0
 11
81.203261
 21
107.945192
 31
0.0
  0
SPLINE
  5
137
100
AcDbEntity
  8
Carte_Micro_V1_etch_mask_top
 62
7
100
AcDbSpline
 70
8
 71
3
 72
8
 73
4
 74
0
 40
0
 40
0
 40
0
 40
0
 40
1
 40
1
 40
1
 40
1
 10
48.818263
 20
17.140137
 30
0.0
 10
48.818263
 20
15.980339
 30
0.0
 10
47.878061
 20
15.040137
 30
0.0
 10
46.718263
 20
15.040137
 30
0.0
  0
SPLINE
  5
138
100
AcDbEntity
  8
Carte_Micro_V1_etch_mask_top
 62
7
100
AcDbSpline
 70
8
 71
3
 72
8
 73
4
 74
0
 40
0
 40
0
 40
0
 40
0
 40
1
 40
1
 40
1
 40
1
 10
46.718263
 20
15.040137
 30
0.0
 10
45.558465
 20
15.040137
 30
0.0
 10
44.618265
 20
15.980339
 30
0.0
 10
44.618265
 20
17.140137
 30
0.0
  0
SPLINE
  5
139
100
AcDbEntity
  8
Carte_Micro_V1_etch_mask_top
 62
7
100
AcDbSpline
 70
8
 71
3
 72
8
 73
4
 74
0
 40
0
 40
0
 40
0
 40
0
 40
1
 40
1
 40
1
 40
1
 10
44.618265
 20
17.140137
 30
0.0
 10
44.618265
 20
18.299937
 30
0.0
 10
45.558465
 20
19.240139
 30
0.0
 10
46.718263
 20
19.240139
 30
0.0
  0
SPLINE
  5
13a
100
AcDbEntity
  8
Carte_Micro_V1_etch_mask_top
 62
7
100
AcDbSpline
 70
8
 71
3
 72
8
 73
4
 74
0
 40
0
 40
0
 40
0
 40
0
 40
1
 40
1
 40
1
 40
1
 10
46.718263
 20
19.240139
 30
0.0
 10
47.878061
 20
19.240139
 30
0.0
 10
48.818263
 20
18.299937
 30
0.0
 10
48.818263
 20
17.140137
 30
0.0
  0
LINE
  5
13b
100
AcDbEntity
  8
Carte_Micro_V1_etch_mask_top
 62
7
100
AcDbLine
 10
48.818263
 20
17.140137
 30
0.0
 11
48.818263
 21
17.140137
 31
0.0
  0
SPLINE
  5
13c
100
AcDbEntity
  8
Carte_Micro_V1_etch_mask_top
 62
7
100
AcDbSpline
 70
8
 71
3
 72
8
 73
4
 74
0
 40
0
 40
0
 40
0
 40
0
 40
1
 40
1
 40
1
 40
1
 10
48.818265
 20
17.140139
 30
0.0
 10
48.818265
 20
15.980341
 30
0.0
 10
47.878063
 20
15.040139
 30
0.0
 10
46.718265
 20
15.040139
 30
0.0
  0
SPLINE
  5
13d
100
AcDbEntity
  8
Carte_Micro_V1_etch_mask_top
 62
7
100
AcDbSpline
 70
8
 71
3
 72
8
 73
4
 74
0
 40
0
 40
0
 40
0
 40
0
 40
1
 40
1
 40
1
 40
1
 10
46.718265
 20
15.040139
 30
0.0
 10
45.558467
 20
15.040139
 30
0.0
 10
44.618265
 20
15.980341
 30
0.0
 10
44.618265
 20
17.140139
 30
0.0
  0
SPLINE
  5
13e
100
AcDbEntity
  8
Carte_Micro_V1_etch_mask_top
 62
7
100
AcDbSpline
 70
8
 71
3
 72
8
 73
4
 74
0
 40
0
 40
0
 40
0
 40
0
 40
1
 40
1
 40
1
 40
1
 10
44.618265
 20
17.140139
 30
0.0
 10
44.618265
 20
18.299937
 30
0.0
 10
45.558467
 20
19.240139
 30
0.0
 10
46.718265
 20
19.240139
 30
0.0
  0
SPLINE
  5
13f
100
AcDbEntity
  8
Carte_Micro_V1_etch_mask_top
 62
7
100
AcDbSpline
 70
8
 71
3
 72
8
 73
4
 74
0
 40
0
 40
0
 40
0
 40
0
 40
1
 40
1
 40
1
 40
1
 10
46.718265
 20
19.240139
 30
0.0
 10
47.878063
 20
19.240139
 30
0.0
 10
48.818265
 20
18.299937
 30
0.0
 10
48.818265
 20
17.140139
 30
0.0
  0
LINE
  5
140
100
AcDbEntity
  8
Carte_Micro_V1_etch_mask_top
 62
7
100
AcDbLine
 10
48.818265
 20
17.140139
 30
0.0
 11
48.818265
 21
17.140139
 31
0.0
  0
SPLINE
  5
141
100
AcDbEntity
  8
Carte_Micro_V1_etch_mask_top
 62
7
100
AcDbSpline
 70
8
 71
3
 72
8
 73
4
 74
0
 40
0
 40
0
 40
0
 40
0
 40
1
 40
1
 40
1
 40
1
 10
98.348257
 20
146.680213
 30
0.0
 10
98.348257
 20
145.520414
 30
0.0
 10
97.408057
 20
144.580212
 30
0.0
 10
96.248259
 20
144.580212
 30
0.0
  0
SPLINE
  5
142
100
AcDbEntity
  8
Carte_Micro_V1_etch_mask_top
 62
7
100
AcDbSpline
 70
8
 71
3
 72
8
 73
4
 74
0
 40
0
 40
0
 40
0
 40
0
 40
1
 40
1
 40
1
 40
1
 10
96.248259
 20
144.580212
 30
0.0
 10
95.088461
 20
144.580212
 30
0.0
 10
94.148259
 20
145.520414
 30
0.0
 10
94.148259
 20
146.680213
 30
0.0
  0
SPLINE
  5
143
100
AcDbEntity
  8
Carte_Micro_V1_etch_mask_top
 62
7
100
AcDbSpline
 70
8
 71
3
 72
8
 73
4
 74
0
 40
0
 40
0
 40
0
 40
0
 40
1
 40
1
 40
1
 40
1
 10
94.148259
 20
146.680213
 30
0.0
 10
94.148259
 20
147.840012
 30
0.0
 10
95.088461
 20
148.780214
 30
0.0
 10
96.248259
 20
148.780214
 30
0.0
  0
SPLINE
  5
144
100
AcDbEntity
  8
Carte_Micro_V1_etch_mask_top
 62
7
100
AcDbSpline
 70
8
 71
3
 72
8
 73
4
 74
0
 40
0
 40
0
 40
0
 40
0
 40
1
 40
1
 40
1
 40
1
 10
96.248259
 20
148.780214
 30
0.0
 10
97.408057
 20
148.780214
 30
0.0
 10
98.348257
 20
147.840012
 30
0.0
 10
98.348257
 20
146.680213
 30
0.0
  0
LINE
  5
145
100
AcDbEntity
  8
Carte_Micro_V1_etch_mask_top
 62
7
100
AcDbLine
 10
98.348257
 20
146.680213
 30
0.0
 11
98.348257
 21
146.680213
 31
0.0
  0
SPLINE
  5
146
100
AcDbEntity
  8
Carte_Micro_V1_etch_mask_top
 62
7
100
AcDbSpline
 70
8
 71
3
 72
8
 73
4
 74
0
 40
0
 40
0
 40
0
 40
0
 40
1
 40
1
 40
1
 40
1
 10
98.348259
 20
146.680215
 30
0.0
 10
98.348259
 20
145.520417
 30
0.0
 10
97.408057
 20
144.580215
 30
0.0
 10
96.248259
 20
144.580215
 30
0.0
  0
SPLINE
  5
147
100
AcDbEntity
  8
Carte_Micro_V1_etch_mask_top
 62
7
100
AcDbSpline
 70
8
 71
3
 72
8
 73
4
 74
0
 40
0
 40
0
 40
0
 40
0
 40
1
 40
1
 40
1
 40
1
 10
96.248259
 20
144.580215
 30
0.0
 10
95.088461
 20
144.580215
 30
0.0
 10
94.148259
 20
145.520417
 30
0.0
 10
94.148259
 20
146.680215
 30
0.0
  0
SPLINE
  5
148
100
AcDbEntity
  8
Carte_Micro_V1_etch_mask_top
 62
7
100
AcDbSpline
 70
8
 71
3
 72
8
 73
4
 74
0
 40
0
 40
0
 40
0
 40
0
 40
1
 40
1
 40
1
 40
1
 10
94.148259
 20
146.680215
 30
0.0
 10
94.148259
 20
147.840013
 30
0.0
 10
95.088461
 20
148.780215
 30
0.0
 10
96.248259
 20
148.780215
 30
0.0
  0
SPLINE
  5
149
100
AcDbEntity
  8
Carte_Micro_V1_etch_mask_top
 62
7
100
AcDbSpline
 70
8
 71
3
 72
8
 73
4
 74
0
 40
0
 40
0
 40
0
 40
0
 40
1
 40
1
 40
1
 40
1
 10
96.248259
 20
148.780215
 30
0.0
 10
97.408057
 20
148.780215
 30
0.0
 10
98.348259
 20
147.840013
 30
0.0
 10
98.348259
 20
146.680215
 30
0.0
  0
LINE
  5
14a
100
AcDbEntity
  8
Carte_Micro_V1_etch_mask_top
 62
7
100
AcDbLine
 10
98.348259
 20
146.680215
 30
0.0
 11
98.348259
 21
146.680215
 31
0.0
  0
SPLINE
  5
14b
100
AcDbEntity
  8
Carte_Micro_V1_etch_mask_top
 62
7
100
AcDbSpline
 70
8
 71
3
 72
8
 73
4
 74
0
 40
0
 40
0
 40
0
 40
0
 40
1
 40
1
 40
1
 40
1
 10
6.908459
 20
78.735173
 30
0.0
 10
6.908459
 20
77.575375
 30
0.0
 10
5.968257
 20
76.635173
 30
0.0
 10
4.808459
 20
76.635173
 30
0.0
  0
SPLINE
  5
14c
100
AcDbEntity
  8
Carte_Micro_V1_etch_mask_top
 62
7
100
AcDbSpline
 70
8
 71
3
 72
8
 73
4
 74
0
 40
0
 40
0
 40
0
 40
0
 40
1
 40
1
 40
1
 40
1
 10
4.808459
 20
76.635173
 30
0.0
 10
3.648661
 20
76.635173
 30
0.0
 10
2.708459
 20
77.575375
 30
0.0
 10
2.708459
 20
78.735173
 30
0.0
  0
SPLINE
  5
14d
100
AcDbEntity
  8
Carte_Micro_V1_etch_mask_top
 62
7
100
AcDbSpline
 70
8
 71
3
 72
8
 73
4
 74
0
 40
0
 40
0
 40
0
 40
0
 40
1
 40
1
 40
1
 40
1
 10
2.708459
 20
78.735173
 30
0.0
 10
2.708459
 20
79.894973
 30
0.0
 10
3.648661
 20
80.835175
 30
0.0
 10
4.808459
 20
80.835175
 30
0.0
  0
SPLINE
  5
14e
100
AcDbEntity
  8
Carte_Micro_V1_etch_mask_top
 62
7
100
AcDbSpline
 70
8
 71
3
 72
8
 73
4
 74
0
 40
0
 40
0
 40
0
 40
0
 40
1
 40
1
 40
1
 40
1
 10
4.808459
 20
80.835175
 30
0.0
 10
5.968257
 20
80.835175
 30
0.0
 10
6.908459
 20
79.894973
 30
0.0
 10
6.908459
 20
78.735173
 30
0.0
  0
LINE
  5
14f
100
AcDbEntity
  8
Carte_Micro_V1_etch_mask_top
 62
7
100
AcDbLine
 10
6.908459
 20
78.735173
 30
0.0
 11
6.908459
 21
78.735173
 31
0.0
  0
SPLINE
  5
150
100
AcDbEntity
  8
Carte_Micro_V1_etch_mask_top
 62
7
100
AcDbSpline
 70
8
 71
3
 72
8
 73
4
 74
0
 40
0
 40
0
 40
0
 40
0
 40
1
 40
1
 40
1
 40
1
 10
6.908460
 20
78.735175
 30
0.0
 10
6.908460
 20
77.575377
 30
0.0
 10
5.968258
 20
76.635175
 30
0.0
 10
4.808460
 20
76.635175
 30
0.0
  0
SPLINE
  5
151
100
AcDbEntity
  8
Carte_Micro_V1_etch_mask_top
 62
7
100
AcDbSpline
 70
8
 71
3
 72
8
 73
4
 74
0
 40
0
 40
0
 40
0
 40
0
 40
1
 40
1
 40
1
 40
1
 10
4.808460
 20
76.635175
 30
0.0
 10
3.648662
 20
76.635175
 30
0.0
 10
2.708460
 20
77.575377
 30
0.0
 10
2.708460
 20
78.735175
 30
0.0
  0
SPLINE
  5
152
100
AcDbEntity
  8
Carte_Micro_V1_etch_mask_top
 62
7
100
AcDbSpline
 70
8
 71
3
 72
8
 73
4
 74
0
 40
0
 40
0
 40
0
 40
0
 40
1
 40
1
 40
1
 40
1
 10
2.708460
 20
78.735175
 30
0.0
 10
2.708460
 20
79.894973
 30
0.0
 10
3.648662
 20
80.835175
 30
0.0
 10
4.808460
 20
80.835175
 30
0.0
  0
SPLINE
  5
153
100
AcDbEntity
  8
Carte_Micro_V1_etch_mask_top
 62
7
100
AcDbSpline
 70
8
 71
3
 72
8
 73
4
 74
0
 40
0
 40
0
 40
0
 40
0
 40
1
 40
1
 40
1
 40
1
 10
4.808460
 20
80.835175
 30
0.0
 10
5.968258
 20
80.835175
 30
0.0
 10
6.908460
 20
79.894973
 30
0.0
 10
6.908460
 20
78.735175
 30
0.0
  0
LINE
  5
154
100
AcDbEntity
  8
Carte_Micro_V1_etch_mask_top
 62
7
100
AcDbLine
 10
6.908460
 20
78.735175
 30
0.0
 11
6.908460
 21
78.735175
 31
0.0
  0
SPLINE
  5
155
100
AcDbEntity
  8
Carte_Micro_V1_etch_mask_top
 62
7
100
AcDbSpline
 70
8
 71
3
 72
8
 73
4
 74
0
 40
0
 40
0
 40
0
 40
0
 40
1
 40
1
 40
1
 40
1
 10
48.818263
 20
78.735173
 30
0.0
 10
48.818263
 20
77.575375
 30
0.0
 10
47.878061
 20
76.635173
 30
0.0
 10
46.718263
 20
76.635173
 30
0.0
  0
SPLINE
  5
156
100
AcDbEntity
  8
Carte_Micro_V1_etch_mask_top
 62
7
100
AcDbSpline
 70
8
 71
3
 72
8
 73
4
 74
0
 40
0
 40
0
 40
0
 40
0
 40
1
 40
1
 40
1
 40
1
 10
46.718263
 20
76.635173
 30
0.0
 10
45.558465
 20
76.635173
 30
0.0
 10
44.618265
 20
77.575375
 30
0.0
 10
44.618265
 20
78.735173
 30
0.0
  0
SPLINE
  5
157
100
AcDbEntity
  8
Carte_Micro_V1_etch_mask_top
 62
7
100
AcDbSpline
 70
8
 71
3
 72
8
 73
4
 74
0
 40
0
 40
0
 40
0
 40
0
 40
1
 40
1
 40
1
 40
1
 10
44.618265
 20
78.735173
 30
0.0
 10
44.618265
 20
79.894973
 30
0.0
 10
45.558465
 20
80.835175
 30
0.0
 10
46.718263
 20
80.835175
 30
0.0
  0
SPLINE
  5
158
100
AcDbEntity
  8
Carte_Micro_V1_etch_mask_top
 62
7
100
AcDbSpline
 70
8
 71
3
 72
8
 73
4
 74
0
 40
0
 40
0
 40
0
 40
0
 40
1
 40
1
 40
1
 40
1
 10
46.718263
 20
80.835175
 30
0.0
 10
47.878061
 20
80.835175
 30
0.0
 10
48.818263
 20
79.894973
 30
0.0
 10
48.818263
 20
78.735173
 30
0.0
  0
LINE
  5
159
100
AcDbEntity
  8
Carte_Micro_V1_etch_mask_top
 62
7
100
AcDbLine
 10
48.818263
 20
78.735173
 30
0.0
 11
48.818263
 21
78.735173
 31
0.0
  0
SPLINE
  5
15a
100
AcDbEntity
  8
Carte_Micro_V1_etch_mask_top
 62
7
100
AcDbSpline
 70
8
 71
3
 72
8
 73
4
 74
0
 40
0
 40
0
 40
0
 40
0
 40
1
 40
1
 40
1
 40
1
 10
48.818265
 20
78.735175
 30
0.0
 10
48.818265
 20
77.575377
 30
0.0
 10
47.878063
 20
76.635175
 30
0.0
 10
46.718265
 20
76.635175
 30
0.0
  0
SPLINE
  5
15b
100
AcDbEntity
  8
Carte_Micro_V1_etch_mask_top
 62
7
100
AcDbSpline
 70
8
 71
3
 72
8
 73
4
 74
0
 40
0
 40
0
 40
0
 40
0
 40
1
 40
1
 40
1
 40
1
 10
46.718265
 20
76.635175
 30
0.0
 10
45.558467
 20
76.635175
 30
0.0
 10
44.618265
 20
77.575377
 30
0.0
 10
44.618265
 20
78.735175
 30
0.0
  0
SPLINE
  5
15c
100
AcDbEntity
  8
Carte_Micro_V1_etch_mask_top
 62
7
100
AcDbSpline
 70
8
 71
3
 72
8
 73
4
 74
0
 40
0
 40
0
 40
0
 40
0
 40
1
 40
1
 40
1
 40
1
 10
44.618265
 20
78.735175
 30
0.0
 10
44.618265
 20
79.894973
 30
0.0
 10
45.558467
 20
80.835175
 30
0.0
 10
46.718265
 20
80.835175
 30
0.0
  0
SPLINE
  5
15d
100
AcDbEntity
  8
Carte_Micro_V1_etch_mask_top
 62
7
100
AcDbSpline
 70
8
 71
3
 72
8
 73
4
 74
0
 40
0
 40
0
 40
0
 40
0
 40
1
 40
1
 40
1
 40
1
 10
46.718265
 20
80.835175
 30
0.0
 10
47.878063
 20
80.835175
 30
0.0
 10
48.818265
 20
79.894973
 30
0.0
 10
48.818265
 20
78.735175
 30
0.0
  0
LINE
  5
15e
100
AcDbEntity
  8
Carte_Micro_V1_etch_mask_top
 62
7
100
AcDbLine
 10
48.818265
 20
78.735175
 30
0.0
 11
48.818265
 21
78.735175
 31
0.0
  0
SPLINE
  5
15f
100
AcDbEntity
  8
Carte_Micro_V1_etch_mask_top
 62
7
100
AcDbSpline
 70
8
 71
3
 72
8
 73
4
 74
0
 40
0
 40
0
 40
0
 40
0
 40
1
 40
1
 40
1
 40
1
 10
81.203261
 20
78.735173
 30
0.0
 10
81.203261
 20
77.575375
 30
0.0
 10
80.263059
 20
76.635173
 30
0.0
 10
79.103261
 20
76.635173
 30
0.0
  0
SPLINE
  5
160
100
AcDbEntity
  8
Carte_Micro_V1_etch_mask_top
 62
7
100
AcDbSpline
 70
8
 71
3
 72
8
 73
4
 74
0
 40
0
 40
0
 40
0
 40
0
 40
1
 40
1
 40
1
 40
1
 10
79.103261
 20
76.635173
 30
0.0
 10
77.943463
 20
76.635173
 30
0.0
 10
77.003261
 20
77.575375
 30
0.0
 10
77.003261
 20
78.735173
 30
0.0
  0
SPLINE
  5
161
100
AcDbEntity
  8
Carte_Micro_V1_etch_mask_top
 62
7
100
AcDbSpline
 70
8
 71
3
 72
8
 73
4
 74
0
 40
0
 40
0
 40
0
 40
0
 40
1
 40
1
 40
1
 40
1
 10
77.003261
 20
78.735173
 30
0.0
 10
77.003261
 20
79.894973
 30
0.0
 10
77.943463
 20
80.835175
 30
0.0
 10
79.103261
 20
80.835175
 30
0.0
  0
SPLINE
  5
162
100
AcDbEntity
  8
Carte_Micro_V1_etch_mask_top
 62
7
100
AcDbSpline
 70
8
 71
3
 72
8
 73
4
 74
0
 40
0
 40
0
 40
0
 40
0
 40
1
 40
1
 40
1
 40
1
 10
79.103261
 20
80.835175
 30
0.0
 10
80.263059
 20
80.835175
 30
0.0
 10
81.203261
 20
79.894973
 30
0.0
 10
81.203261
 20
78.735173
 30
0.0
  0
LINE
  5
163
100
AcDbEntity
  8
Carte_Micro_V1_etch_mask_top
 62
7
100
AcDbLine
 10
81.203261
 20
78.735173
 30
0.0
 11
81.203261
 21
78.735173
 31
0.0
  0
SPLINE
  5
164
100
AcDbEntity
  8
Carte_Micro_V1_etch_mask_top
 62
7
100
AcDbSpline
 70
8
 71
3
 72
8
 73
4
 74
0
 40
0
 40
0
 40
0
 40
0
 40
1
 40
1
 40
1
 40
1
 10
81.203261
 20
78.735175
 30
0.0
 10
81.203261
 20
77.575377
 30
0.0
 10
80.263059
 20
76.635175
 30
0.0
 10
79.103261
 20
76.635175
 30
0.0
  0
SPLINE
  5
165
100
AcDbEntity
  8
Carte_Micro_V1_etch_mask_top
 62
7
100
AcDbSpline
 70
8
 71
3
 72
8
 73
4
 74
0
 40
0
 40
0
 40
0
 40
0
 40
1
 40
1
 40
1
 40
1
 10
79.103261
 20
76.635175
 30
0.0
 10
77.943463
 20
76.635175
 30
0.0
 10
77.003261
 20
77.575377
 30
0.0
 10
77.003261
 20
78.735175
 30
0.0
  0
SPLINE
  5
166
100
AcDbEntity
  8
Carte_Micro_V1_etch_mask_top
 62
7
100
AcDbSpline
 70
8
 71
3
 72
8
 73
4
 74
0
 40
0
 40
0
 40
0
 40
0
 40
1
 40
1
 40
1
 40
1
 10
77.003261
 20
78.735175
 30
0.0
 10
77.003261
 20
79.894973
 30
0.0
 10
77.943463
 20
80.835175
 30
0.0
 10
79.103261
 20
80.835175
 30
0.0
  0
SPLINE
  5
167
100
AcDbEntity
  8
Carte_Micro_V1_etch_mask_top
 62
7
100
AcDbSpline
 70
8
 71
3
 72
8
 73
4
 74
0
 40
0
 40
0
 40
0
 40
0
 40
1
 40
1
 40
1
 40
1
 10
79.103261
 20
80.835175
 30
0.0
 10
80.263059
 20
80.835175
 30
0.0
 10
81.203261
 20
79.894973
 30
0.0
 10
81.203261
 20
78.735175
 30
0.0
  0
LINE
  5
168
100
AcDbEntity
  8
Carte_Micro_V1_etch_mask_top
 62
7
100
AcDbLine
 10
81.203261
 20
78.735175
 30
0.0
 11
81.203261
 21
78.735175
 31
0.0
  0
ENDSEC
  0
SECTION
  2
OBJECTS
  0
DICTIONARY
  5
C
330
0
100
AcDbDictionary
  3
ACAD_GROUP
350
D
  3
ACAD_MLINESTYLE
350
17
  0
DICTIONARY
  5
D
330
C
100
AcDbDictionary
  0
DICTIONARY
  5
1A
330
C
100
AcDbDictionary
  0
DICTIONARY
  5
17
330
C
100
AcDbDictionary
  3
STANDARD
350
18
  0
DICTIONARY
  5
19
330
C
100
AcDbDictionary
  0
ENDSEC
  0
EOF
