<?xml version="1.0" encoding="UTF-8" standalone="no"?>
<!-- Created with Inkscape (http://www.inkscape.org/) -->

<svg
   xmlns:dc="http://purl.org/dc/elements/1.1/"
   xmlns:cc="http://creativecommons.org/ns#"
   xmlns:rdf="http://www.w3.org/1999/02/22-rdf-syntax-ns#"
   xmlns:svg="http://www.w3.org/2000/svg"
   xmlns="http://www.w3.org/2000/svg"
   xmlns:sodipodi="http://sodipodi.sourceforge.net/DTD/sodipodi-0.dtd"
   xmlns:inkscape="http://www.inkscape.org/namespaces/inkscape"
   id="svg5984"
   version="1.1"
   inkscape:version="0.48.5 r10040"
   width="354.33069"
   height="531.49603"
   xml:space="preserve"
   sodipodi:docname="Carte_Micro_V1_etch_mask_top.pdf"><metadata
     id="metadata5990"><rdf:RDF><cc:Work
         rdf:about=""><dc:format>image/svg+xml</dc:format><dc:type
           rdf:resource="http://purl.org/dc/dcmitype/StillImage" /><dc:title></dc:title></cc:Work></rdf:RDF></metadata><defs
     id="defs5988" /><sodipodi:namedview
     pagecolor="#ffffff"
     bordercolor="#666666"
     borderopacity="1"
     objecttolerance="10"
     gridtolerance="10"
     guidetolerance="10"
     inkscape:pageopacity="0"
     inkscape:pageshadow="2"
     inkscape:window-width="1280"
     inkscape:window-height="751"
     id="namedview5986"
     showgrid="false"
     units="mm"
     inkscape:document-units="mm"
     fit-margin-top="0"
     fit-margin-left="0"
     fit-margin-right="0"
     fit-margin-bottom="0"
     inkscape:zoom="1.3830691"
     inkscape:cx="247.47008"
     inkscape:cy="392.56154"
     inkscape:window-x="0"
     inkscape:window-y="0"
     inkscape:window-maximized="1"
     inkscape:current-layer="g6000" /><g
     id="g5992"
     inkscape:groupmode="layer"
     inkscape:label="Carte_Micro_V1_etch_mask_top"
     transform="matrix(1.25,0,0,-1.25,-12.8225,544.02206)"><g
       id="g5994"
       transform="matrix(0.06,0,0,-0.06,10.02,434.98)"><g
         id="g5996"><g
           id="g5998" /></g><g
         id="g6000"><g
           id="g6002" /><g
           id="g6004" /><g
           id="g6006"><path
             d="m 4.8,4.8 4714.81,0 0,7077.02 -4714.81,0 L 4.8,4.8 z"
             style="fill:none;stroke:#000000;stroke-width:0.5;stroke-linecap:butt;stroke-linejoin:miter;stroke-miterlimit:10;stroke-opacity:1;stroke-dasharray:none"
             id="path6008"
             inkscape:connector-curvature="0" /></g><g
           id="g6026"><path
             d="m 1170.3465,152.87909 c 0,54.79364 -44.419,99.21266 -99.2126,99.21266 -54.7936,0 -99.21261,-44.41902 -99.21261,-99.21266 0,-54.793638 44.41901,-99.212658 99.21261,-99.212658 54.7936,0 99.2126,44.41902 99.2126,99.212658 z"
             style="fill:#000000;fill-opacity:1;fill-rule:evenodd;stroke:none"
             id="path6028"
             inkscape:connector-curvature="0" /></g><g
           id="g6030"
           transform="translate(945.25489,27.000016)"><path
             d="m 225.0916,125.879 c 0,54.7936 -44.419,99.2126 -99.2126,99.2126 -54.793606,0 -99.2126,-44.419 -99.2126,-99.2126 0,-54.793606 44.418994,-99.2126 99.2126,-99.2126 54.7936,0 99.2126,44.418994 99.2126,99.2126 z"
             style="fill:none;stroke:#000000;stroke-width:12;stroke-linecap:butt;stroke-linejoin:miter;stroke-miterlimit:10;stroke-opacity:1;stroke-dasharray:none"
             id="path6032"
             inkscape:connector-curvature="0" /></g><g
           id="g6034"><path
             d="m 3840.3412,5762.8824 c 0,54.7936 -44.419,99.2126 -99.2126,99.2126 -54.7936,0 -99.2126,-44.419 -99.2126,-99.2126 0,-54.7937 44.419,-99.2127 99.2126,-99.2127 54.7936,0 99.2126,44.419 99.2126,99.2127 z"
             style="fill:#000000;fill-opacity:1;fill-rule:evenodd;stroke:none"
             id="path6036"
             inkscape:connector-curvature="0" /></g><g
           id="g6038"
           transform="translate(3615.2496,5637.0033)"><path
             d="m 225.0916,125.879 c 0,54.7936 -44.419,99.2126 -99.2126,99.2126 -54.793606,0 -99.2126,-44.419 -99.2126,-99.2126 0,-54.793606 44.418994,-99.2126 99.2126,-99.2126 54.7936,0 99.2126,44.418994 99.2126,99.2126 z"
             style="fill:none;stroke:#000000;stroke-width:12;stroke-linecap:butt;stroke-linejoin:miter;stroke-miterlimit:10;stroke-opacity:1;stroke-dasharray:none"
             id="path6040"
             inkscape:connector-curvature="0" /></g><g
           id="g6042"><path
             d="m 1170.3465,6272.8827 c 0,54.7936 -44.419,99.2126 -99.2126,99.2126 -54.7936,0 -99.21261,-44.419 -99.21261,-99.2126 0,-54.7937 44.41901,-99.2127 99.21261,-99.2127 54.7936,0 99.2126,44.419 99.2126,99.2127 z"
             style="fill:#000000;fill-opacity:1;fill-rule:evenodd;stroke:none"
             id="path6044"
             inkscape:connector-curvature="0" /></g><g
           id="g6046"
           transform="translate(945.25489,6147.0036)"><path
             d="m 225.0916,125.879 c 0,54.7936 -44.419,99.2126 -99.2126,99.2126 -54.793606,0 -99.2126,-44.419 -99.2126,-99.2126 0,-54.793606 44.418994,-99.2126 99.2126,-99.2126 54.7936,0 99.2126,44.418994 99.2126,99.2126 z"
             style="fill:none;stroke:#000000;stroke-width:12;stroke-linecap:butt;stroke-linejoin:miter;stroke-miterlimit:10;stroke-opacity:1;stroke-dasharray:none"
             id="path6048"
             inkscape:connector-curvature="0" /></g><g
           id="g6050"><path
             d="m 2310.3413,1052.8796 c 0,54.7936 -44.419,99.2127 -99.2126,99.2127 -54.7936,0 -99.2125,-44.4191 -99.2125,-99.2127 0,-54.79362 44.4189,-99.21264 99.2125,-99.21264 54.7936,0 99.2126,44.41902 99.2126,99.21264 z"
             style="fill:#000000;fill-opacity:1;fill-rule:evenodd;stroke:none"
             id="path6052"
             inkscape:connector-curvature="0" /></g><g
           id="g6054"
           transform="translate(2085.2498,927.00054)"><path
             d="m 225.0916,125.879 c 0,54.7936 -44.419,99.2126 -99.2126,99.2126 -54.793606,0 -99.2126,-44.419 -99.2126,-99.2126 0,-54.793606 44.418994,-99.2126 99.2126,-99.2126 54.7936,0 99.2126,44.418994 99.2126,99.2126 z"
             style="fill:none;stroke:#000000;stroke-width:12;stroke-linecap:butt;stroke-linejoin:miter;stroke-miterlimit:10;stroke-opacity:1;stroke-dasharray:none"
             id="path6056"
             inkscape:connector-curvature="0" /></g><g
           id="g6058"><path
             d="m 3840.3412,1982.8802 c 0,54.7936 -44.419,99.2126 -99.2126,99.2126 -54.7936,0 -99.2126,-44.419 -99.2126,-99.2126 0,-54.7937 44.419,-99.2127 99.2126,-99.2127 54.7936,0 99.2126,44.419 99.2126,99.2127 z"
             style="fill:#000000;fill-opacity:1;fill-rule:evenodd;stroke:none"
             id="path6060"
             inkscape:connector-curvature="0" /></g><g
           id="g6062"
           transform="translate(3615.2496,1857.0011)"><path
             d="m 225.0916,125.879 c 0,54.7936 -44.419,99.2126 -99.2126,99.2126 -54.793606,0 -99.2126,-44.419 -99.2126,-99.2126 0,-54.793606 44.418994,-99.2126 99.2126,-99.2126 54.7936,0 99.2126,44.418994 99.2126,99.2126 z"
             style="fill:none;stroke:#000000;stroke-width:12;stroke-linecap:butt;stroke-linejoin:miter;stroke-miterlimit:10;stroke-opacity:1;stroke-dasharray:none"
             id="path6064"
             inkscape:connector-curvature="0" /></g><g
           id="g6066"><path
             d="m 2310.3413,6272.8827 c 0,54.7936 -44.419,99.2126 -99.2126,99.2126 -54.7936,0 -99.2125,-44.419 -99.2125,-99.2126 0,-54.7937 44.4189,-99.2127 99.2125,-99.2127 54.7936,0 99.2126,44.419 99.2126,99.2127 z"
             style="fill:#000000;fill-opacity:1;fill-rule:evenodd;stroke:none"
             id="path6068"
             inkscape:connector-curvature="0" /></g><g
           id="g6070"
           transform="translate(2085.2498,6147.0036)"><path
             d="m 225.0916,125.879 c 0,54.7936 -44.419,99.2126 -99.2126,99.2126 -54.793606,0 -99.2126,-44.419 -99.2126,-99.2126 0,-54.793606 44.418994,-99.2126 99.2126,-99.2126 54.7936,0 99.2126,44.418994 99.2126,99.2126 z"
             style="fill:none;stroke:#000000;stroke-width:12;stroke-linecap:butt;stroke-linejoin:miter;stroke-miterlimit:10;stroke-opacity:1;stroke-dasharray:none"
             id="path6072"
             inkscape:connector-curvature="0" /></g><g
           id="g6074"><path
             d="m 4650.341,152.87909 c 0,54.79364 -44.4189,99.21266 -99.2125,99.21266 -54.7936,0 -99.2126,-44.41902 -99.2126,-99.21266 0,-54.793638 44.419,-99.212658 99.2126,-99.212658 54.7936,0 99.2125,44.41902 99.2125,99.212658 z"
             style="fill:#000000;fill-opacity:1;fill-rule:evenodd;stroke:none"
             id="path6076"
             inkscape:connector-curvature="0" /></g><g
           id="g6078"
           transform="translate(4425.2495,27.000016)"><path
             d="m 225.0916,125.879 c 0,54.7936 -44.419,99.2126 -99.2126,99.2126 -54.793606,0 -99.2126,-44.419 -99.2126,-99.2126 0,-54.793606 44.418994,-99.2126 99.2126,-99.2126 54.7936,0 99.2126,44.418994 99.2126,99.2126 z"
             style="fill:none;stroke:#000000;stroke-width:12;stroke-linecap:butt;stroke-linejoin:miter;stroke-miterlimit:10;stroke-opacity:1;stroke-dasharray:none"
             id="path6080"
             inkscape:connector-curvature="0" /></g><g
           id="g6082"><path
             d="m 330.35056,3362.881 c 0,54.7936 -44.41899,99.2126 -99.21259,99.2126 -54.7936,0 -99.21259,-44.419 -99.21259,-99.2126 0,-54.7937 44.41899,-99.2127 99.21259,-99.2127 54.7936,0 99.21259,44.419 99.21259,99.2127 z"
             style="fill:#000000;fill-opacity:1;fill-rule:evenodd;stroke:none"
             id="path6084"
             inkscape:connector-curvature="0" /></g><g
           id="g6086"
           transform="translate(105.25899,3237.0019)"><path
             d="m 225.0916,125.879 c 0,54.7936 -44.419,99.2126 -99.2126,99.2126 -54.793606,0 -99.2126,-44.419 -99.2126,-99.2126 0,-54.793606 44.418994,-99.2126 99.2126,-99.2126 54.7936,0 99.2126,44.418994 99.2126,99.2126 z"
             style="fill:none;stroke:#000000;stroke-width:12;stroke-linecap:butt;stroke-linejoin:miter;stroke-miterlimit:10;stroke-opacity:1;stroke-dasharray:none"
             id="path6088"
             inkscape:connector-curvature="0" /></g><g
           id="g6090"><path
             d="m 2310.3413,3362.881 c 0,54.7936 -44.419,99.2126 -99.2126,99.2126 -54.7936,0 -99.2125,-44.419 -99.2125,-99.2126 0,-54.7937 44.4189,-99.2127 99.2125,-99.2127 54.7936,0 99.2126,44.419 99.2126,99.2127 z"
             style="fill:#000000;fill-opacity:1;fill-rule:evenodd;stroke:none"
             id="path6092"
             inkscape:connector-curvature="0" /></g><g
           id="g6094"
           transform="translate(2085.2498,3237.0019)"><path
             d="m 225.0916,125.879 c 0,54.7936 -44.419,99.2126 -99.2126,99.2126 -54.793606,0 -99.2126,-44.419 -99.2126,-99.2126 0,-54.793606 44.418994,-99.2126 99.2126,-99.2126 54.7936,0 99.2126,44.418994 99.2126,99.2126 z"
             style="fill:none;stroke:#000000;stroke-width:12;stroke-linecap:butt;stroke-linejoin:miter;stroke-miterlimit:10;stroke-opacity:1;stroke-dasharray:none"
             id="path6096"
             inkscape:connector-curvature="0" /></g><g
           id="g6098"><path
             d="m 3840.3412,3362.881 c 0,54.7936 -44.419,99.2126 -99.2126,99.2126 -54.7936,0 -99.2126,-44.419 -99.2126,-99.2126 0,-54.7937 44.419,-99.2127 99.2126,-99.2127 54.7936,0 99.2126,44.419 99.2126,99.2127 z"
             style="fill:#000000;fill-opacity:1;fill-rule:evenodd;stroke:none"
             id="path6100"
             inkscape:connector-curvature="0" /></g><g
           id="g6102"
           transform="translate(3615.2496,3237.0019)"><path
             d="m 225.0916,125.879 c 0,54.7936 -44.419,99.2126 -99.2126,99.2126 -54.793606,0 -99.2126,-44.419 -99.2126,-99.2126 0,-54.793606 44.418994,-99.2126 99.2126,-99.2126 54.7936,0 99.2126,44.418994 99.2126,99.2126 z"
             style="fill:none;stroke:#000000;stroke-width:12;stroke-linecap:butt;stroke-linejoin:miter;stroke-miterlimit:10;stroke-opacity:1;stroke-dasharray:none"
             id="path6104"
             inkscape:connector-curvature="0" /></g><g
           id="g9544" /></g></g></g></svg>