<?xml version="1.0" encoding="UTF-8" standalone="no"?>
<!-- Created with Inkscape (http://www.inkscape.org/) -->

<svg
   xmlns:dc="http://purl.org/dc/elements/1.1/"
   xmlns:cc="http://creativecommons.org/ns#"
   xmlns:rdf="http://www.w3.org/1999/02/22-rdf-syntax-ns#"
   xmlns:svg="http://www.w3.org/2000/svg"
   xmlns="http://www.w3.org/2000/svg"
   xmlns:sodipodi="http://sodipodi.sourceforge.net/DTD/sodipodi-0.dtd"
   xmlns:inkscape="http://www.inkscape.org/namespaces/inkscape"
   width="98.380295"
   height="115.70588"
   id="svg2"
   version="1.1"
   inkscape:version="0.48.5 r10040"
   sodipodi:docname="Logo_K.svg">
  <defs
     id="defs4" />
  <sodipodi:namedview
     id="base"
     pagecolor="#ffffff"
     bordercolor="#666666"
     borderopacity="1.0"
     inkscape:pageopacity="0.0"
     inkscape:pageshadow="2"
     inkscape:zoom="0.52662149"
     inkscape:cx="327.35873"
     inkscape:cy="-307.24078"
     inkscape:document-units="mm"
     inkscape:current-layer="layer1"
     showgrid="false"
     units="mm"
     inkscape:window-width="1280"
     inkscape:window-height="751"
     inkscape:window-x="0"
     inkscape:window-y="0"
     inkscape:window-maximized="1"
     fit-margin-top="0"
     fit-margin-left="0"
     fit-margin-right="0"
     fit-margin-bottom="0" />
  <metadata
     id="metadata7">
    <rdf:RDF>
      <cc:Work
         rdf:about="">
        <dc:format>image/svg+xml</dc:format>
        <dc:type
           rdf:resource="http://purl.org/dc/dcmitype/StillImage" />
      </cc:Work>
    </rdf:RDF>
  </metadata>
  <g
     inkscape:label="Calque 1"
     inkscape:groupmode="layer"
     id="layer1"
     transform="translate(-11.409702,-11.028708)">
    <path
       style="fill:#000000"
       d="m 76.619772,126.13541 c -0.23691,-0.45339 -0.40226,-0.64091 -0.56482,-0.64057 -0.12642,2.3e-4 -1.39229,0.15216 -2.81305,0.33754 -1.42075,0.18538 -2.59486,0.32538 -2.60911,0.31113 -0.10645,-0.10645 -4.95636,-9.86571 -5.94844,-11.9698 -3.25043,-6.89376 -6.18434,-13.64019 -9.02436,-20.751232 -1.01854,-2.55029 -1.86828,-4.65329 -1.88831,-4.67332 -0.0622,-0.0622 -2.31485,1.95953 -4.86232,4.36376 -2.13993,2.01962 -3.89804,3.8023 -7.19631,7.296912 l -0.89332,0.94649 0.0645,1.12215 c 0.0355,0.61719 0.11778,2.28577 0.18287,3.70796 0.2119,4.62959 1.03777,14.31977 1.4437,16.93935 l 0.0694,0.44763 -2.39761,-0.0792 c -4.21846,-0.13931 -7.18281,-0.37202 -10.41965,-0.818 -0.68281,-0.0941 -2.00157,-0.25085 -2.93058,-0.34839 -1.99386,-0.20934 -4.61614,-0.58469 -4.7049,-0.67345 -0.0344,-0.0344 -0.21023,-1.24033 -0.39072,-2.67983 -3.77215,-30.085472 -6.90502,-60.106642 -9.34583,-89.557922 -0.73891,-8.91573 -0.98002,-12.04076 -0.98064,-12.71003 l -5.7e-4,-0.58545 0.94813,-0.13481 c 10.38653,-1.47678 16.17764,-2.0457 23.67081,-2.32542 3.37794,-0.12609 9.65299,-0.0796 11.29507,0.0837 l 0.68955,0.0686 -0.0375,1.46284 -0.0375,1.46283 1.23337,0.0755 c 0.67835,0.0415 1.64533,0.0755 2.14885,0.0755 l 0.91549,0 -0.0769,1.98245 c -0.24228,6.25004 -0.3045,9.17738 -0.3707,17.43985 -0.0403,5.02509 -0.0339,10.42163 0.0141,11.99232 l 0.0873,2.85579 0.70687,-1.07446 c 7.62581,-11.59138 14.90492,-23.99853 21.44781,-36.5575 l 1.30224,-2.49962 0.4116,7.5e-4 c 2.6431,0.005 12.34056,0.73241 17.70779,1.32868 4.31328,0.47918 12.973108,1.78203 13.336118,2.00639 0.10325,0.0638 -0.0519,0.35852 -0.55186,1.04847 -0.3825,0.52785 -0.68039,0.97537 -0.66194,0.99451 0.0184,0.0191 0.82808,0.1616 1.79921,0.31661 2.60222,0.41534 2.3978,0.34377 2.3978,0.83939 0,0.47518 0.29993,0.0248 -3.95175,5.93455 -12.069438,16.77646 -22.570238,30.58152 -31.544248,41.47025 l -1.97452,2.3958 0.2175,0.36239 c 0.11962,0.19932 0.87748,1.52601 1.68414,2.94821 7.54964,13.31062 15.67231,26.34709 26.915918,43.198702 2.67323,4.00658 4.86044,7.3183 4.86044,7.35938 0,0.16024 -6.803278,1.74095 -11.660688,2.70931 -5.05699,1.00814 -9.27762,1.71187 -14.48472,2.41512 -1.20097,0.1622 -2.34313,0.32289 -2.53815,0.35709 -0.33391,0.0586 -0.37411,0.0248 -0.68955,-0.57885 z"
       id="path3232"
       inkscape:connector-curvature="0"
       sodipodi:nodetypes="scscssssscssscssscssccssscccsscssscsscsssscsssscsssssscs" />
  </g>
</svg>
